<svg xmlns="http://www.w3.org/2000/svg" viewBox="0 0 72 72" width="72" height="72"><g><circle cx="36" cy="36" r="26" fill="#ffffff" stroke="none"/><polyline fill="#ffffff" stroke-linecap="round" stroke-linejoin="round" stroke-width="2" points="27 37.48 27 50 39.52 50" stroke="none"/><path fill="#ffffff" stroke-linecap="round" stroke-linejoin="round" stroke-width="2" d="m41.52 52h-12.52c-1.104 0-2-0.8955-2-2h12.52l2 2z" stroke="none"/><polyline fill="#ffffff" stroke-linecap="round" stroke-linejoin="round" stroke-width="2" points="45 34.52 45 22 32.48 22" stroke="none"/><path fill="#ffffff" stroke-linecap="round" stroke-linejoin="round" stroke-width="2" d="m30.48 20h12.52c1.104 0 2 0.8955 2 2h-12.52l-2-2z" stroke="none"/><path fill="#ea5a47" d="m36 7c-16.02 0-29 12.98-29 29s12.98 29 29 29 29-12.98 29-29-12.98-29-29-29zm-25.21 29.27c0-5.075 3.417-12.69 6.202-16.49l35.2 35.27c-3.805 2.784-10.93 5.904-16.01 5.904-12.7 0-25.39-11.98-25.39-24.68zm44.87 15.18-35.06-35.13c3.805-2.784 10.77-5.441 15.84-5.441 12.7 0 24.68 12.25 24.68 24.95 0 5.075-2.686 11.81-5.47 15.62z" stroke="none"/></g><g stroke-linejoin="round" stroke-width="2"><path d="m26.98 29.58 0.02 20.42h12.52" fill="none" stroke="#000000" stroke-width="2" stroke-linejoin="round"/><path d="m45.02 47.56-0.04817 2.882" fill="none" stroke="#000000" stroke-width="2" stroke-linejoin="round"/><path stroke-linecap="round" d="m39.87 52h-10.87c-1.104 0-2-0.8955-2-2h15.02z" fill="none" stroke="#000000" stroke-width="2" stroke-linejoin="round"/><path d="m45 40.7v-18.7h-12.52" fill="none" stroke="#000000" stroke-width="2" stroke-linejoin="round"/><path stroke-linecap="round" d="m29.48 20h13.52c1.104 0 2 0.8955 2 2h-14.02z" fill="none" stroke="#000000" stroke-width="2" stroke-linejoin="round"/><circle cx="36" cy="36" r="30" stroke-linecap="round" fill="none" stroke="#000000" stroke-width="2" stroke-linejoin="round"/><path stroke-linecap="round" d="m55.66 51.44a24.99 24.99 0 0 0-35.06-35.13z" fill="none" stroke="#000000" stroke-width="2" stroke-linejoin="round"/><path stroke-linecap="round" d="m16.99 19.77a24.99 24.99 0 0 0 35.2 35.27z" fill="none" stroke="#000000" stroke-width="2" stroke-linejoin="round"/><path stroke-linecap="round" d="m43.5 20h-13.52c-1.104 0-2 0.8955-2 2h14.02z" fill="none" stroke="#000000" stroke-width="2" stroke-linejoin="round"/><path stroke-linecap="round" d="m34.26 52h8.76c1.104 0 2-0.8955 2-2h-15.02z" fill="none" stroke="#000000" stroke-width="2" stroke-linejoin="round"/></g></svg>