<svg xmlns="http://www.w3.org/2000/svg" viewBox="0 0 72 72" width="72" height="72"><g><circle cx="36" cy="40" r="1" fill="#000000" stroke="none"/></g><g><rect x="26" y="5" width="20" height="62" fill="#3f3f3f" stroke="#000000" stroke-linejoin="round" stroke-width="1"/><rect x="26" y="53" width="20" height="14" fill="#9b9b9a" stroke="none"/><circle cx="36" cy="40" r="8" fill="#d22f27" stroke="#d0cfce" stroke-width="1"/><circle r="4" transform="matrix(-1 0 0 1 36 40)" fill="#ea5a47" stroke="none"/><path fill="none" stroke="#ffffff" stroke-linecap="round" stroke-linejoin="round" stroke-width="2" d="M41 40C41 39.4156 40.8997 38.8546 40.7155 38.3333C40.0291 36.3913 38.177 35 36 35"/><circle cx="36" cy="40" r="2" fill="#f1b31c" stroke="none"/><circle cx="36" cy="40" r="1" fill="#fcea2b" stroke="none"/><rect x="28" y="7" width="8" height="4" fill="#61b2e4" stroke="none"/></g><g><rect x="26" y="5" width="20" height="62" fill="none" stroke="#000000" stroke-linejoin="round" stroke-width="1"/><circle cx="36" cy="40" r="7" fill="none" stroke="#000000" stroke-width="1"/><line x1="27.5" x2="44.5" y1="52.5" y2="52.5" stroke="#000000" stroke-linecap="round" fill="#000000" stroke-width="1"/><rect x="28" y="7" width="16" height="4" fill="none" stroke="#000000" stroke-linejoin="round" stroke-width="1"/><rect x="26" y="5" width="20" height="62" fill="none" stroke="#000000" stroke-linejoin="round" stroke-width="1"/></g></svg>