<svg xmlns="http://www.w3.org/2000/svg" viewBox="74.731 172.631 850.439 564.938" width="850.439" height="564.938"><g><path d="M757.4,300.7H601.6v-52H645c14.4,0,26-11.6,26-26v0c0-14.4-11.6-26-26-26H389.6   c-14.4,0-26,11.6-26,26v0c0,14.4,11.6,26,26,26h55.4c14.4,0,26,11.6,26,26v0c0,14.4-11.6,26-26,26h-178c-14.4,0-26,11.6-26,26v0   c0,14.4,11.6,26,26,26h70.8c14.4,0,26,11.6,26,26v0c0,14.4-11.6,26-26,26h-29.9c-14.4,0-26,11.6-26,26v0c0,14.4,11.6,26,26,26h98.6   v52h-76c-14.4,0-26,11.6-26,26l0,0c0,14.4,11.6,26,26,26h138.6c14.4,0,26,11.6,26,26v0c0,14.4-11.6,26-26,26h-77.5   c-14.4,0-26,11.6-26,26v0c0,14.4,11.6,26,26,26h296.6c14.4,0,26-11.6,26-26v0c0-14.4-11.6-26-26-26h-74.5v-52h23.6   c14.4,0,26-11.6,26-26v0c0-14.4-11.6-26-26-26h-23.6v-52h98.6c14.4,0,26-11.6,26-26v0c0-14.4-11.6-26-26-26h3.7v-52h41.6   c14.4,0,26-11.6,26-26v0C783.4,312.4,771.8,300.7,757.4,300.7z" fill="rgba(57,93,119,0.69)" stroke="none"/><path d="M265.8,506.3h-27.2c-14.4,0-26-11.6-26-26v0c0-14.4,11.6-26,26-26h27.2c14.4,0,26,11.6,26,26   v0C291.8,494.6,280.2,506.3,265.8,506.3z" fill="rgba(130,93,126,0.5)" stroke="none"/><path d="M515.8,404.7h-52.7c-14.4,0-26-11.6-26-26v0c0-14.4,11.6-26,26-26h52.7c14.4,0,26,11.6,26,26   v0C541.8,393.1,530.2,404.7,515.8,404.7z" fill="#4a6d8b" stroke="none"/><path d="M747.9,404.7H636.2c-14.4,0-26-11.6-26-26v0c0-14.4,11.6-26,26-26h111.7c14.4,0,26,11.6,26,26   v0C773.9,393.1,762.3,404.7,747.9,404.7z" fill="#4a6d8b" stroke="none"/><path d="M653.2,508.7H541.5c-14.4,0-26-11.6-26-26v0c0-14.4,11.6-26,26-26h111.7c14.4,0,26,11.6,26,26   v0C679.2,497.1,667.6,508.7,653.2,508.7z" fill="#4a6d8b" stroke="none"/><path d="M384.2,451.7H272.5c-14.4,0-26-11.6-26-26v0c0-14.4,11.6-26,26-26h111.7c14.4,0,26,11.6,26,26   v0C410.2,440.1,398.6,451.7,384.2,451.7z" fill="#684463" stroke="none"/><path d="M713.6,300.7H601.8c-14.4,0-26-11.6-26-26v0c0-14.4,11.6-26,26-26h111.7c14.4,0,26,11.6,26,26   v0C739.6,289.1,727.9,300.7,713.6,300.7z" fill="#4a6d8b" stroke="none"/><path d="M719.4,612.7H607.7c-14.4,0-26-11.6-26-26v0c0-14.4,11.6-26,26-26h111.7c14.4,0,26,11.6,26,26   v0C745.4,601.1,733.8,612.7,719.4,612.7z" fill="#4a6d8b" stroke="none"/><path d="M705.2,560.7h36.2c14.4,0,26-11.6,26-26v0c0-14.4-11.6-26-26-26h-36.2c-14.4,0-26,11.6-26,26   v0C679.2,549.1,690.8,560.7,705.2,560.7z" fill="rgba(57,93,119,0.69)" stroke="none"/><path d="M793.4,456.7H781c-14.4,0-26-11.6-26-26v0c0-14.4,11.6-26,26-26h12.4c14.4,0,26,11.6,26,26v0   C819.4,445.1,807.8,456.7,793.4,456.7z" fill="rgba(57,93,119,0.69)" stroke="none"/><path d="M272.5,664.7h48.6c14.4,0,26-11.6,26-26v0c0-14.4-11.6-26-26-26h-48.6c-14.4,0-26,11.6-26,26   v0C246.5,653.1,258.1,664.7,272.5,664.7z" fill="rgba(57,93,119,0.69)" stroke="none"/><path d="M195.3,352.7L195.3,352.7c14.4,0,26-11.6,26-26v0c0-14.4-11.6-26-26-26h0   c-14.4,0-26,11.6-26,26v0C169.3,341.1,180.9,352.7,195.3,352.7z" fill="rgba(57,93,119,0.69)" stroke="none"/><path d="M888.2,713.5H111.8c-7.2,0-13-5.8-13-13v0c0-7.2,5.8-13,13-13h776.3c7.2,0,13,5.8,13,13v0   C901.2,707.7,895.3,713.5,888.2,713.5z" fill="rgba(45,70,89,0.56)" stroke="none"/><rect x="435.7" y="599.5" width="20" height="100" fill="#8bbf98" stroke="none"/><rect x="455.7" y="599.5" width="12" height="100" fill="#63916e" stroke="none"/><rect x="547.7" y="599.5" width="20" height="100" fill="#8bbf98" stroke="none"/><rect x="567.7" y="599.5" width="12" height="100" fill="#63916e" stroke="none"/><rect x="631.7" y="599.5" width="20" height="100" fill="#8bbf98" stroke="none"/><rect x="651.7" y="599.5" width="12" height="100" fill="#63916e" stroke="none"/><rect x="716.1" y="619.5" width="12" height="80" fill="#8bbf98" stroke="none"/><rect x="728.1" y="619.5" width="8" height="80" fill="#63916e" stroke="none"/><rect x="792" y="619.5" width="12" height="80" fill="#8bbf98" stroke="none"/><rect x="804" y="619.5" width="8" height="80" fill="#63916e" stroke="none"/><rect x="804" y="619.5" width="8" height="4" fill="#55845f" stroke="none"/><rect x="792" y="619.5" width="12" height="4" fill="#63916e" stroke="none"/><rect x="761.4" y="507.5" width="12" height="192" fill="#8bbf98" stroke="none"/><rect x="773.4" y="507.5" width="8" height="192" fill="#63916e" stroke="none"/><rect x="837.4" y="507.5" width="12" height="192" fill="#8bbf98" stroke="none"/><rect x="849.4" y="507.5" width="8" height="192" fill="#63916e" stroke="none"/><path d="M431.1,547.5h-23.6v-172h23.6c3.3,0,6,2.7,6,6v160C437.1,544.8,434.5,547.5,431.1,547.5z" fill="#ef6562" stroke="none"/><path d="M423.6,547.5h-244c-3.3,0-6-2.7-6-6v-160c0-3.3,2.7-6,6-6h244c3.3,0,6,2.7,6,6v160   C429.6,544.8,426.9,547.5,423.6,547.5z" fill="#ec958b" stroke="none"/><rect x="227.6" y="345.4" transform="matrix(-1.836970e-16 1 -1 -1.836970e-16 762.9394 159.8375)" width="148" height="232" fill="#34515b" stroke="none"/><rect x="113.1" y="459.9" transform="matrix(-1.836970e-16 1 -1 -1.836970e-16 648.4394 274.3375)" width="148" height="3" fill="#d84e4e" stroke="none"/><rect x="413.8" y="387.4" width="3.8" height="148" fill="#284249" stroke="none"/><rect x="304.2" y="547.5" width="18.2" height="152" fill="#d84e4e" stroke="none"/><rect x="296.6" y="547.5" width="18.2" height="152" fill="#ef6562" stroke="none"/><rect x="296.6" y="547.5" width="18.2" height="7.4" fill="#d84e4e" stroke="none"/><path d="M376.6,699.5H253.9v-12c0-6.6,5.4-12,12-12h98.7c6.6,0,12,5.4,12,12V699.5z" fill="#ef6562" stroke="none"/><path d="M365.5,699.5H242.8v-12c0-6.6,5.4-12,12-12h98.7c6.6,0,12,5.4,12,12V699.5z" fill="#ec958b" stroke="none"/><rect x="435.7" y="580.4" width="132" height="19.1" fill="#8bbf98" stroke="none"/><rect x="567.7" y="580.4" width="96" height="19.1" fill="#63916e" stroke="none"/><rect x="428.7" y="567.1" width="129" height="13.3" fill="#9fd6a3" stroke="none"/><rect x="435.7" y="580.4" width="132" height="4" fill="#63916e" stroke="none"/><rect x="557.7" y="567.1" width="115.6" height="13.3" fill="#83b78d" stroke="none"/><rect x="710.4" y="603.5" width="96" height="16" fill="#81b58c" stroke="none"/><rect x="806.4" y="603.5" width="56" height="16" fill="#63916e" stroke="none"/><rect x="773.4" y="517.3" width="64" height="36" fill="#81b58c" stroke="none"/><rect x="849.4" y="619.5" width="8" height="4" fill="#55845f" stroke="none"/><rect x="837.4" y="619.5" width="12" height="4" fill="#63916e" stroke="none"/><rect x="761.4" y="619.5" width="12" height="4" fill="#63916e" stroke="none"/><rect x="716.1" y="619.5" width="12" height="4" fill="#63916e" stroke="none"/><rect x="728.1" y="619.5" width="8" height="4" fill="#55845f" stroke="none"/><rect x="773.4" y="619.5" width="8" height="4" fill="#55845f" stroke="none"/><rect x="567.7" y="580.4" width="96" height="4" fill="#577f5d" stroke="none"/><g><rect x="601" y="453.6" transform="matrix(0.9911 -0.1334 0.1334 0.9911 -60.7587 85.2339)" width="9.4" height="84.8" fill="#dd5858" stroke="none"/><rect x="596.5" y="456.2" transform="matrix(0.9911 -0.1334 0.1334 0.9911 -56.9574 84.4606)" width="10.6" height="22.3" fill="#ef6562" stroke="none"/><rect x="593.4" y="459" transform="matrix(0.9911 -0.1334 0.1334 0.9911 -56.0165 83.4062)" width="2" height="1.4" fill="#e8e8e8" stroke="none"/><path d="M596.2,476.3l-0.6,0.1l-2.1-15.7l1.4-0.2l2,14.9C597,475.7,596.7,476.2,596.2,476.3z" fill="#e8e8e8" stroke="none"/><rect x="598.7" y="478.3" transform="matrix(0.9911 -0.1334 0.1334 0.9911 -58.4882 84.772)" width="9.4" height="1.1" fill="#d35050" stroke="none"/></g><g><path d="M583.7,479.6l-8.1,2.5l-3.7-11.9c-0.5-1.6,0.4-3.3,2-3.8l2.4-0.7c1.6-0.5,3.3,0.4,3.8,2    L583.7,479.6z" fill="#e8e8e8" stroke="none"/><rect x="576.6" y="480.4" transform="matrix(0.9544 -0.2986 0.2986 0.9544 -120.0758 196.4244)" width="12.6" height="21.8" fill="#35393d" stroke="none"/><polygon points="579,500.7 588.8,488.4 586.7,481.8 576.9,494.1   " fill="#808284" stroke="none"/><rect x="587" y="500.6" transform="matrix(0.9544 -0.2986 0.2986 0.9544 -128.9842 200.7801)" width="11.4" height="43.9" fill="#3b4044" stroke="none"/><rect x="589" y="501.2" transform="matrix(0.9544 -0.2986 0.2986 0.9544 -129.2357 200.2657)" width="3.8" height="43.9" fill="rgba(109,111,112,0.66)" stroke="none"/></g><g><polygon points="633.9,463.9 630,463.3 625.1,472.1 636.1,473.7   " fill="#c5e1df" stroke="none"/><path d="M621.4,545.3l-2.9-0.4c-2.2-0.3-3.7-2.4-3.4-4.6l10.1-68.2l10.9,1.6L626,541.9    C625.7,544.1,623.6,545.7,621.4,545.3z" fill="#b3dbad" stroke="none"/><path d="M617.3,544.7l-0.8-0.1c-1.1-0.2-1.9-1.2-1.8-2.4l10.4-70.2l2.8,0.4L617.3,544.7z" fill="#68a575" stroke="none"/><path d="M623.3,545.6l-0.8-0.1l10.7-72.2l2.8,0.4l-10.4,70.2C625.5,545,624.5,545.8,623.3,545.6z" fill="#68a575" stroke="none"/><path d="M633.9,463.9l-0.9-4c-0.1-0.6-0.8-0.7-1.1-0.2l-2,3.6L633.9,463.9z" fill="#6f5a66" stroke="none"/><polygon points="633.9,463.9 632,463.6 633.2,473.3 636.1,473.7   " fill="#a5ceca" stroke="none"/></g><path d="M633.9,567.1h-56v-57.6c0-1.1,0.9-2,2-2h52c1.1,0,2,0.9,2,2V567.1z" fill="#f2e07c" stroke="none"/><path d="M625.9,507.5v59.6h8v-57.6c0-1.1-0.9-2-2-2H625.9z" fill="#dfbb4d" stroke="none"/><rect x="564.3" y="537.3" width="31.1" height="29.8" fill="#6e7ee0" stroke="none"/><rect x="564.3" y="537.3" width="3.4" height="29.8" fill="#7a8ce2" stroke="none"/><rect x="590.9" y="537.3" transform="matrix(-1 -1.224647e-16 1.224647e-16 -1 1186.2551 1104.3224)" width="4.5" height="29.8" fill="#6373c1" stroke="none"/><rect x="595.4" y="537.3" transform="matrix(-1 -1.224647e-16 1.224647e-16 -1 1193.5815 1104.3224)" width="2.8" height="29.8" fill="#dfbb4d" stroke="none"/><rect x="471.5" y="543.6" width="23.4" height="23.4" fill="#ec958b" stroke="none"/><rect x="471.5" y="543.6" width="23.4" height="1.1" fill="#ef6562" stroke="none"/><rect x="494.9" y="543.6" width="12.4" height="23.4" fill="#ef6562" stroke="none"/><g><path d="M485.7,558.7h-3.9l-0.6,1.9h-2.1l3.5-9.8h2.3l3.5,9.8h-2.1L485.7,558.7z M483.7,553.1l-1.4,4.1h2.8    L483.7,553.1z" fill="#ffffff" stroke="none"/></g><rect x="504.7" y="543.6" width="23.4" height="23.4" fill="#e8b58b" stroke="none"/><rect x="528.1" y="543.6" width="12.4" height="23.4" fill="#e09d6c" stroke="none"/><g><path d="M516.5,550.8c2.4,0,3.5,1.4,3.5,3c0,1.2-0.7,2.4-2.2,2.8l2.3,4h-2.3l-2.2-3.8h-0.9v3.8h-2v-9.8H516.5z     M516.5,552.4h-1.6v2.9h1.6c1.1,0,1.6-0.6,1.6-1.5C518,553,517.5,552.4,516.5,552.4z" fill="#ffffff" stroke="none"/></g><rect x="465.3" y="520.2" width="23.4" height="23.4" fill="#1bb1b2" stroke="none"/><rect x="488.7" y="520.2" width="12.4" height="23.4" fill="#19a5a1" stroke="none"/><g><path d="M480.2,527.4h2.1l-3.6,9.8h-2.4l-3.6-9.8h2.1l2.7,7.8L480.2,527.4z" fill="#ffffff" stroke="none"/></g><path d="M187.2,693.3c-12.5,9.1-30,6.4-39.1-6.1c-9.1-12.5-6.4-30,6.1-39.1L187.2,693.3z" fill="#ef6562" stroke="none"/><path d="M154.2,648.1c12.5-9.1,30-6.4,39.1,6.1c9.1,12.5,6.4,30-6.1,39.1L154.2,648.1z" fill="#f2e07c" stroke="none"/><path d="M174.9,643c10.6,4,18.1,14.2,18.1,26.2c0,15.5-12.5,28-28,28c-1.4,0-2.8-0.1-4.2-0.3   c3.1,1.2,6.4,1.8,9.9,1.8c15.5,0,28-12.5,28-28C198.7,656.6,188.4,645,174.9,643z" fill="rgba(165,154,99,0.25)" stroke="none"/><g><path d="M278.9,472.4c0.6-1.1,1.1-2.2,1.6-3.3c0.5-1.1,1-2.3,1.4-3.5c0.9-2.3,1.7-4.7,2.4-7.1    c0.2-0.6,0.4-1.2,0.5-1.8l0.5-1.8c0.3-1.2,0.6-2.4,0.8-3.7c0.3-1.2,0.5-2.5,0.7-3.7c0.2-1.2,0.3-2.5,0.5-3.7l0.1-0.8l0.5-0.4l0,0    c0.5-0.5,1.3-1,2.2-1c0.9-0.1,1.6,0.2,2.1,0.5c1,0.6,1.7,1.2,2.2,1.9c1.1,1.3,1.9,2.6,2.7,4c1.5,2.7,2.7,5.4,3.9,8.2    c1.1,2.8,2.2,5.6,3.1,8.4c0.9,2.8,1.8,5.7,2.4,8.7c0.1,0.5-0.2,1-0.7,1.1c-0.5,0.1-1-0.2-1.1-0.7l0,0c-0.8-2.8-1.8-5.5-2.9-8.3    c-1.1-2.7-2.3-5.4-3.5-8c-1.3-2.6-2.6-5.2-4.2-7.6c-0.8-1.2-1.6-2.3-2.5-3.2c-0.4-0.4-0.9-0.8-1.2-0.9c-0.1-0.1-0.2,0,0,0    c0.1,0,0.3-0.1,0.2-0.1l0,0l0.6-1.2c-0.2,1.3-0.3,2.6-0.5,3.9c-0.2,1.3-0.4,2.6-0.7,3.9c-0.2,1.3-0.6,2.6-0.9,3.8l-0.5,1.9    c-0.2,0.6-0.3,1.3-0.5,1.9c-0.7,2.5-1.6,5-2.5,7.4c-0.5,1.2-1,2.4-1.5,3.6c-0.5,1.2-1.1,2.4-1.7,3.6c-0.5,1-1.7,1.4-2.7,0.8    S278.4,473.4,278.9,472.4L278.9,472.4L278.9,472.4z" fill="#d1d1d1" stroke="none"/></g><g><path d="M280.4,459.4l25-2.6c0.9-0.1,1.7,0.6,1.8,1.5c0.1,0.9-0.5,1.7-1.4,1.8l-25,3.3    c-1.1,0.1-2.1-0.6-2.2-1.7S279.3,459.6,280.4,459.4C280.4,459.4,280.4,459.4,280.4,459.4z" fill="#d1d1d1" stroke="none"/></g><path d="M833.8,528.2h-11c-1.7,0-3-1.3-3-3l0,0c0-1.7,1.3-3,3-3h11c1.7,0,3,1.3,3,3l0,0   C836.8,526.8,835.5,528.2,833.8,528.2z" fill="#8bbf98" stroke="none"/><path d="M825.9,537.5h-12c-1.7,0-3-1.3-3-3l0,0c0-1.7,1.3-3,3-3h12c1.7,0,3,1.3,3,3l0,0   C828.9,536.1,827.6,537.5,825.9,537.5z" fill="#8bbf98" stroke="none"/><path d="M816.4,548.5h-36c-1.7,0-3-1.3-3-3l0,0c0-1.7,1.3-3,3-3h36c1.7,0,3,1.3,3,3l0,0   C819.4,547.2,818.1,548.5,816.4,548.5z" fill="rgba(139,191,152,0.74)" stroke="none"/><path d="M281.5,687.5h-23c-1.7,0-3-1.3-3-3v0c0-1.7,1.3-3,3-3h23c1.7,0,3,1.3,3,3v0   C284.5,686.1,283.2,687.5,281.5,687.5z" fill="rgba(239,101,98,0.23)" stroke="none"/><path d="M304.2,687.5h-6.7c-1.7,0-3-1.3-3-3v0c0-1.7,1.3-3,3-3h6.7c1.7,0,3,1.3,3,3v0   C307.2,686.1,305.9,687.5,304.2,687.5z" fill="rgba(239,101,98,0.23)" stroke="none"/><path d="M354,695h-26.8c-1.7,0-3-1.3-3-3l0,0c0-1.7,1.3-3,3-3H354c1.7,0,3,1.3,3,3l0,0   C357,693.6,355.7,695,354,695z" fill="rgba(239,101,98,0.23)" stroke="none"/><path d="M343.2,695H338c-1.7,0-3-1.3-3-3l0,0c0-1.7,1.3-3,3-3h5.2c1.7,0,3,1.3,3,3l0,0   C346.2,693.6,344.9,695,343.2,695z" fill="rgba(239,101,98,0.23)" stroke="none"/><path d="M797.4,537.5h-5.2c-1.7,0-3-1.3-3-3l0,0c0-1.7,1.3-3,3-3h5.2c1.7,0,3,1.3,3,3l0,0   C800.4,536.1,799.1,537.5,797.4,537.5z" fill="#8bbf98" stroke="none"/><path d="M806.5,528.2h-25c-1.7,0-3-1.3-3-3l0,0c0-1.7,1.3-3,3-3h25c1.7,0,3,1.3,3,3l0,0   C809.5,526.8,808.2,528.2,806.5,528.2z" fill="#8bbf98" stroke="none"/><path d="M472.1,589.9h-20.8c-0.9,0-1.7-0.7-1.7-1.7l0,0c0-0.9,0.7-1.7,1.7-1.7h20.8   c0.9,0,1.7,0.7,1.7,1.7l0,0C473.7,589.2,473,589.9,472.1,589.9z" fill="rgba(99,145,110,0.18)" stroke="none"/><path d="M488,589.9h-9.5c-0.9,0-1.7-0.7-1.7-1.7l0,0c0-0.9,0.7-1.7,1.7-1.7h9.5   c0.9,0,1.7,0.7,1.7,1.7l0,0C489.6,589.2,488.9,589.9,488,589.9z" fill="rgba(99,145,110,0.18)" stroke="none"/><path d="M500.9,595.7h-20.5c-0.9,0-1.7-0.7-1.7-1.7l0,0c0-0.9,0.7-1.7,1.7-1.7h20.5   c0.9,0,1.7,0.7,1.7,1.7l0,0C502.5,594.9,501.8,595.7,500.9,595.7z" fill="rgba(99,145,110,0.18)" stroke="none"/><path d="M537.4,595.7h-6.1c-0.9,0-1.7-0.7-1.7-1.7l0,0c0-0.9,0.7-1.7,1.7-1.7h6.1   c0.9,0,1.7,0.7,1.7,1.7l0,0C539,594.9,538.3,595.7,537.4,595.7z" fill="rgba(99,145,110,0.18)" stroke="none"/><path d="M543.5,590.9h-6.1c-0.9,0-1.7-0.7-1.7-1.7l0,0c0-0.9,0.7-1.7,1.7-1.7h6.1   c0.9,0,1.7,0.7,1.7,1.7l0,0C545.2,590.1,544.5,590.9,543.5,590.9z" fill="rgba(99,145,110,0.18)" stroke="none"/><path d="M607.6,595.7h-23.5c-0.9,0-1.7-0.7-1.7-1.7l0,0c0-0.9,0.7-1.7,1.7-1.7h23.5   c0.9,0,1.7,0.7,1.7,1.7l0,0C609.2,594.9,608.5,595.7,607.6,595.7z" fill="rgba(139,191,152,0.26)" stroke="none"/><path d="M641.1,595.7H635c-0.9,0-1.7-0.7-1.7-1.7l0,0c0-0.9,0.7-1.7,1.7-1.7h6.1   c0.9,0,1.7,0.7,1.7,1.7l0,0C642.7,594.9,642,595.7,641.1,595.7z" fill="rgba(139,191,152,0.26)" stroke="none"/><path d="M614,590h-13.2c-0.9,0-1.7-0.7-1.7-1.7l0,0c0-0.9,0.7-1.7,1.7-1.7H614c0.9,0,1.7,0.7,1.7,1.7   l0,0C615.7,589.3,615,590,614,590z" fill="rgba(139,191,152,0.26)" stroke="none"/></g></svg>